<svg width="24" height="24" viewBox="0 0 24 24" fill="none" xmlns="http://www.w3.org/2000/svg">
<g>
<path d="M1.60706 18C2.43422 19.4356 4.26858 19.9288 5.70417 19.1017C5.70516 19.1011 5.7061 19.1005 5.70708 19.1L6.15206 18.843C6.99206 19.5616 7.9576 20.119 9.00005 20.487V21C9.00005 22.6568 10.3432 24 12 24C13.6569 24 15 22.6568 15 21V20.487C16.0426 20.1184 17.0082 19.5604 17.848 18.841L18.295 19.099C19.731 19.9274 21.5666 19.4349 22.3951 17.999C23.2235 16.563 22.731 14.7274 21.295 13.899L20.851 13.643C21.0509 12.5554 21.0509 11.4405 20.851 10.353L21.295 10.097C22.731 9.26855 23.2235 7.43292 22.3951 5.99695C21.5666 4.56103 19.731 4.06852 18.295 4.89694L17.85 5.15395C17.0092 4.43616 16.043 3.87984 15 3.513V3C15 1.34316 13.6569 0 12 0C10.3432 0 9.00005 1.34316 9.00005 3V3.513C7.95746 3.88158 6.99188 4.43958 6.15206 5.15902L5.70506 4.90003C4.2691 4.07156 2.43347 4.56408 1.60505 6C0.776627 7.43592 1.2691 9.27159 2.70506 10.1L3.14906 10.356C2.94919 11.4435 2.94919 12.5584 3.14906 13.646L2.70506 13.902C1.27308 14.7326 0.782205 16.5647 1.60706 18ZM12 8.00002C14.2092 8.00002 16 9.79088 16 12C16 14.2091 14.2092 16 12 16C9.79092 16 8.00006 14.2091 8.00006 12C8.00006 9.79088 9.79092 8.00002 12 8.00002Z" fill="currentColor"/>
</g>
</svg>
